<svg width="24" height="24" viewBox="0 0 24 24" fill="none" xmlns="http://www.w3.org/2000/svg">
<path d="M24 12C24 5.37258 18.6274 0 12 0C5.37258 0 0 5.37258 0 12C0 18.6274 5.37258 24 12 24C18.6274 24 24 18.6274 24 12Z" fill="url(#paint0_linear)"/>
<path d="M16.4866 16.9412H7.51342C7.10118 16.9412 6.76518 16.5798 6.76518 16.1365V12.8429L5.66683 7.91157C5.62673 7.74026 5.6422 7.56064 5.71098 7.39871C5.77976 7.23678 5.89829 7.10094 6.04942 7.01086C6.19675 6.92848 6.36862 6.90128 6.5342 6.93413C6.69977 6.96699 6.84823 7.05775 6.95295 7.19015L9.00989 9.68898C9.22165 9.96145 9.55906 10.0814 9.88095 9.99957C10.0551 9.94895 10.2117 9.8508 10.3331 9.71614C10.4545 9.58148 10.5361 9.41563 10.5685 9.23721L11.2786 6.25557C11.313 6.08707 11.4035 5.93519 11.5352 5.82469C11.667 5.7142 11.8323 5.6516 12.0042 5.64709C12.3473 5.64709 12.6452 5.89839 12.7285 6.25698L13.4386 9.23862C13.4711 9.41721 13.5528 9.58318 13.6746 9.71786C13.7963 9.85254 13.9531 9.95059 14.1275 10.001C14.2859 10.0398 14.4522 10.0311 14.6057 9.97583C14.7591 9.92058 14.8929 9.82129 14.9901 9.69039L17.0471 7.19157C17.1518 7.05917 17.3002 6.9684 17.4658 6.93554C17.6314 6.90269 17.8033 6.92989 17.9506 7.01227C18.2541 7.18168 18.4122 7.55439 18.3318 7.91298L17.2334 12.8443V16.1351C17.2334 16.5798 16.8988 16.9412 16.4852 16.9412H16.4866Z" fill="white"/>
<defs>
<linearGradient id="paint0_linear" x1="5.7636" y1="2.8656" x2="21.9967" y2="24" gradientUnits="userSpaceOnUse">
<stop stop-color="#65C236"/>
<stop offset="1" stop-color="#55AA29"/>
</linearGradient>
</defs>
</svg>
