<svg width="24" height="24" viewBox="0 0 24 24" fill="none" xmlns="http://www.w3.org/2000/svg">
<path d="M24 12C24 5.37258 18.6274 0 12 0C5.37258 0 0 5.37258 0 12C0 18.6274 5.37258 24 12 24C18.6274 24 24 18.6274 24 12Z" fill="url(#paint0_linear)"/>
<path d="M11.4466 16.08L8.49465 17.9252C8.36378 18.0079 8.21116 18.0496 8.05641 18.0449C7.90166 18.0403 7.75184 17.9894 7.62619 17.899C7.50054 17.8085 7.40479 17.6826 7.35125 17.5373C7.2977 17.3921 7.28881 17.2341 7.32571 17.0838L8.15582 13.6433C8.18946 13.504 8.18392 13.3582 8.13982 13.2219C8.09572 13.0856 8.01477 12.9642 7.90594 12.871L5.22924 10.5741C5.11207 10.4742 5.02726 10.3416 4.98561 10.1934C4.94395 10.0451 4.94733 9.88782 4.9953 9.74148C5.04327 9.59514 5.13368 9.46637 5.25502 9.37154C5.37637 9.27671 5.52317 9.22011 5.67676 9.20893L9.15818 8.94493C9.30274 8.93408 9.44138 8.88297 9.5584 8.79739C9.67542 8.71181 9.76614 8.59518 9.82029 8.4607L11.1389 5.2094C11.1968 5.0659 11.2963 4.94299 11.4246 4.85643C11.5529 4.76988 11.7041 4.72363 11.8589 4.72363C12.0136 4.72363 12.1649 4.76988 12.2932 4.85643C12.4214 4.94299 12.5209 5.0659 12.5789 5.2094L13.8975 8.46211C13.9516 8.59659 14.0423 8.71322 14.1594 8.7988C14.2764 8.88438 14.415 8.93549 14.5596 8.94634L18.041 9.21034C18.1946 9.22153 18.3414 9.27813 18.4627 9.37295C18.5841 9.46778 18.6745 9.59655 18.7225 9.74289C18.7704 9.88923 18.7738 10.0465 18.7322 10.1948C18.6905 10.3431 18.6057 10.4756 18.4885 10.5755L15.8118 12.871C15.703 12.9642 15.622 13.0856 15.5779 13.2219C15.5338 13.3582 15.5283 13.504 15.5619 13.6433L16.3921 17.0838C16.429 17.2341 16.4201 17.3921 16.3665 17.5373C16.313 17.6826 16.2172 17.8085 16.0916 17.899C15.9659 17.9894 15.8161 18.0403 15.6614 18.0449C15.5066 18.0496 15.354 18.0079 15.2231 17.9252L12.2711 16.08C12.1476 16.0026 12.0047 15.9615 11.8589 15.9615C11.7131 15.9615 11.5702 16.0026 11.4466 16.08Z" fill="white"/>
<defs>
<linearGradient id="paint0_linear" x1="12" y1="0" x2="12" y2="24" gradientUnits="userSpaceOnUse">
<stop stop-color="#FDA434"/>
<stop offset="1" stop-color="#F7B018"/>
<stop offset="1" stop-color="#F7B018"/>
</linearGradient>
</defs>
</svg>
